<svg xmlns="http://www.w3.org/2000/svg" width="162.131" height="37.601" viewBox="0 0 162.131 37.601">
  <path id="Union_5" data-name="Union 5" d="M0,21.3C0,17.849,1.809,13.3,4.687,9.382v5.236a15.441,15.441,0,1,0,30.882,0V9.382c2.877,3.915,4.686,8.467,4.686,11.923,0,8.127-9.406,15.255-20.128,15.255S0,29.432,0,21.3ZM67.892,30.17a1.139,1.139,0,0,1-.339-.825,1.492,1.492,0,0,1,.152-.679l2.048-4-4.4-8.8a1.153,1.153,0,0,1-.14-.562,1.159,1.159,0,0,1,1.171-1.171,1.155,1.155,0,0,1,.831.339,1.1,1.1,0,0,1,.269.433l3.582,7.152L74.634,14.9a1.163,1.163,0,0,1,.281-.433A1.175,1.175,0,0,1,76.8,15.814L69.871,29.731a1.659,1.659,0,0,1-.317.434,1.136,1.136,0,0,1-.831.35A1.121,1.121,0,0,1,67.892,30.17ZM16.06,23.7a4.068,4.068,0,1,1,4.068,4.068A4.068,4.068,0,0,1,16.06,23.7Zm1.709,0a2.359,2.359,0,1,0,2.359-2.359A2.361,2.361,0,0,0,17.769,23.7Zm7.362,0a4.97,4.97,0,0,0-.68-2.513A7.819,7.819,0,0,0,28,14.618V2.141A23.309,23.309,0,0,1,33.013,6v8.619a12.988,12.988,0,0,1-9.065,12.3A4.959,4.959,0,0,0,25.131,23.7ZM7.242,14.618V6a23.309,23.309,0,0,1,5.013-3.857V14.618a7.816,7.816,0,0,0,3.55,6.567,4.985,4.985,0,0,0,.5,5.737A12.987,12.987,0,0,1,7.242,14.618Zm151.4,11.049a.451.451,0,0,0-.059-.053l-.052-.049-9.109-11.237V24.639A1.406,1.406,0,0,1,149,25.667a1.45,1.45,0,0,1-2.056,0,1.407,1.407,0,0,1-.428-1.028v-14.4a1.407,1.407,0,0,1,.428-1.028,1.454,1.454,0,0,1,2.056,0,1.42,1.42,0,0,1,.271.373l8.95,11.036V10.242a1.414,1.414,0,0,1,.428-1.028,1.455,1.455,0,0,1,2.057,0,1.407,1.407,0,0,1,.428,1.028v14.4a1.454,1.454,0,0,1-2.485,1.028Zm-36.86,0a1.393,1.393,0,0,1-.3-.428l-6.93-14.28a1.363,1.363,0,0,1-.209-.737,1.4,1.4,0,0,1,.414-1.008A1.448,1.448,0,0,1,116.8,9.2a1.607,1.607,0,0,1,.289.418l5.72,11.766,5.8-11.918a1.706,1.706,0,0,1,.2-.255,1.437,1.437,0,0,1,2.034,0,1.386,1.386,0,0,1,.422,1.01,1.372,1.372,0,0,1-.247.807l-6.92,14.267a1.436,1.436,0,0,1-.272.375,1.4,1.4,0,0,1-1.016.427A1.374,1.374,0,0,1,121.786,25.664Zm11.755,0a1.4,1.4,0,0,1-.429-1.028v-14.4a1.463,1.463,0,0,1,1.457-1.455l4.8-.012a5.145,5.145,0,0,1,5.155,5.143,5.161,5.161,0,0,1-5.154,5.155h-3.344v5.567a1.454,1.454,0,0,1-2.483,1.028Zm2.483-9.472h3.344a2.275,2.275,0,0,0,2.278-2.278,2.275,2.275,0,0,0-2.278-2.266h-3.344Zm-29.2,9.287a1.4,1.4,0,0,1-.352-1.031V19.934a5.637,5.637,0,0,1,1.709-4.073,6.029,6.029,0,0,1,4.144-1.733,1.194,1.194,0,0,1,0,2.388h-.013a3.349,3.349,0,0,0-2.458,1.019,3.267,3.267,0,0,0-1.006,2.212,1.835,1.835,0,0,1,.012.211v4.518a1.359,1.359,0,0,1-.352,1.007,1.187,1.187,0,0,1-1.684,0ZM95.339,24.124a5.85,5.85,0,0,1,0-8.263,5.85,5.85,0,0,1,8.253-.012l-.013.012c0,.008,0,.012.013.012a1.131,1.131,0,0,1,.338.831,1.113,1.113,0,0,1-.338.819l-3.348,3.326a1.189,1.189,0,0,1-2.037-.856,1.163,1.163,0,0,1,.34-.842l2.34-2.342a3.519,3.519,0,0,0-3.875.72,3.474,3.474,0,0,0,4.9,4.922l.022-.023a1.129,1.129,0,0,1,.832-.339,1.164,1.164,0,0,1,.843.345,1.133,1.133,0,0,1,.351.838,1.15,1.15,0,0,1-.351.842.191.191,0,0,0-.023.023,5.851,5.851,0,0,1-8.253-.013Zm-6.694,1.359a1.152,1.152,0,0,1-.351-.843V16.493H86.947a1.193,1.193,0,0,1,0-2.387h1.346V11.881a1.194,1.194,0,0,1,2.388,0v2.225h1.3a1.193,1.193,0,0,1,0,2.387h-1.3v8.147a1.193,1.193,0,0,1-2.037.843Zm-9.568-.849a3.947,3.947,0,0,1-1.2-2.9,1.126,1.126,0,0,1,.345-.831,1.168,1.168,0,0,1,2,.831,1.755,1.755,0,1,0,1.756-1.755,2.93,2.93,0,0,1-2.072-5,2.821,2.821,0,0,1,2.072-.855,1.172,1.172,0,0,1,.831,2,1.119,1.119,0,0,1-.831.346.579.579,0,0,0-.586.584.571.571,0,0,0,.17.417.563.563,0,0,0,.416.169,4.1,4.1,0,0,1,2.9,6.994,4.1,4.1,0,0,1-5.793,0ZM48.662,23.376A8.087,8.087,0,0,1,46.2,17.441a8.086,8.086,0,0,1,2.459-5.935,8.392,8.392,0,0,1,11.868,0,8.085,8.085,0,0,1,2.458,5.935A8.39,8.39,0,0,1,54.6,25.833,8.085,8.085,0,0,1,48.662,23.376ZM50.347,13.2a5.792,5.792,0,0,0-1.756,4.244,6,6,0,0,0,12.01,0A6.005,6.005,0,0,0,50.347,13.2ZM22.2,19.589v-.617a2.069,2.069,0,1,0-4.138,0v.617a4.6,4.6,0,0,0-1.282.959V18.972a3.351,3.351,0,1,1,6.7,0v1.577A4.6,4.6,0,0,0,22.2,19.589Zm-2.069-.633a4.66,4.66,0,0,0-.723.061v-.046a.723.723,0,1,1,1.445,0v.046A4.66,4.66,0,0,0,20.128,18.957Zm1.117-4.811a1.121,1.121,0,0,0,.031-.256V0a15.482,15.482,0,0,1,4.431,1.047V14.618a5.5,5.5,0,0,1-.833,2.923A4.955,4.955,0,0,0,21.245,14.145Zm-6.7.473V1.047A15.5,15.5,0,0,1,18.98,0V13.89a1.074,1.074,0,0,0,.031.256,4.955,4.955,0,0,0-3.628,3.4A5.5,5.5,0,0,1,14.549,14.618Z" transform="translate(0.5 0.542)" fill="#fff" stroke="rgba(0,0,0,0)" stroke-miterlimit="10" stroke-width="1"/>
</svg>
